<mxfile host="app.diagrams.net" agent="Mozilla/5.0 (Windows NT 10.0; Win64; x64) AppleWebKit/537.36 (KHTML, like Gecko) Chrome/136.0.0.0 Safari/537.36 Edg/136.0.0.0" version="26.0.15">
  <diagram name="Pagina-1" id="kEyVkZVfkeaKOhQCFjHj">
    <mxGraphModel dx="1728" dy="953" grid="1" gridSize="10" guides="1" tooltips="1" connect="1" arrows="1" fold="1" page="1" pageScale="1" pageWidth="1169" pageHeight="1654" background="light-dark(#000000, #121212)" math="0" shadow="0">
      <root>
        <mxCell id="0" />
        <mxCell id="1" parent="0" />
        <mxCell id="WgHRVZOSeJbv_-gWAW0D-1" value="Visita" style="rounded=0;whiteSpace=wrap;html=1;" vertex="1" parent="1">
          <mxGeometry x="250" y="280" width="120" height="60" as="geometry" />
        </mxCell>
        <mxCell id="WgHRVZOSeJbv_-gWAW0D-2" value="Utenti" style="rounded=0;whiteSpace=wrap;html=1;" vertex="1" parent="1">
          <mxGeometry x="110" y="690" width="120" height="60" as="geometry" />
        </mxCell>
        <mxCell id="WgHRVZOSeJbv_-gWAW0D-3" value="Evento" style="rounded=0;whiteSpace=wrap;html=1;" vertex="1" parent="1">
          <mxGeometry x="540" y="410" width="120" height="60" as="geometry" />
        </mxCell>
        <mxCell id="WgHRVZOSeJbv_-gWAW0D-4" value="Turisti" style="rounded=0;whiteSpace=wrap;html=1;" vertex="1" parent="1">
          <mxGeometry x="110" y="970" width="120" height="60" as="geometry" />
        </mxCell>
        <mxCell id="WgHRVZOSeJbv_-gWAW0D-5" value="Lingua_guida" style="rounded=0;whiteSpace=wrap;html=1;" vertex="1" parent="1">
          <mxGeometry x="830" y="840" width="120" height="60" as="geometry" />
        </mxCell>
        <mxCell id="WgHRVZOSeJbv_-gWAW0D-6" value="Guida" style="rounded=0;whiteSpace=wrap;html=1;" vertex="1" parent="1">
          <mxGeometry x="830" y="560" width="120" height="60" as="geometry" />
        </mxCell>
        <mxCell id="WgHRVZOSeJbv_-gWAW0D-7" value="Prenotazioni" style="rounded=0;whiteSpace=wrap;html=1;" vertex="1" parent="1">
          <mxGeometry x="540" y="690" width="120" height="60" as="geometry" />
        </mxCell>
        <mxCell id="WgHRVZOSeJbv_-gWAW0D-8" value="Composta" style="rhombus;whiteSpace=wrap;html=1;" vertex="1" parent="1">
          <mxGeometry x="560" y="270" width="80" height="80" as="geometry" />
        </mxCell>
        <mxCell id="WgHRVZOSeJbv_-gWAW0D-9" value="" style="endArrow=none;html=1;rounded=0;fillColor=#f5f5f5;strokeColor=#F9FFFA;exitX=1;exitY=0.5;exitDx=0;exitDy=0;entryX=0;entryY=0.5;entryDx=0;entryDy=0;" edge="1" parent="1" source="WgHRVZOSeJbv_-gWAW0D-1" target="WgHRVZOSeJbv_-gWAW0D-8">
          <mxGeometry width="50" height="50" relative="1" as="geometry">
            <mxPoint x="460" y="330" as="sourcePoint" />
            <mxPoint x="510" y="280" as="targetPoint" />
          </mxGeometry>
        </mxCell>
        <mxCell id="WgHRVZOSeJbv_-gWAW0D-10" value="" style="endArrow=none;html=1;rounded=0;fillColor=#f5f5f5;strokeColor=#F9FFFA;exitX=0.5;exitY=1;exitDx=0;exitDy=0;entryX=0.5;entryY=0;entryDx=0;entryDy=0;" edge="1" parent="1" source="WgHRVZOSeJbv_-gWAW0D-8" target="WgHRVZOSeJbv_-gWAW0D-3">
          <mxGeometry width="50" height="50" relative="1" as="geometry">
            <mxPoint x="640" y="309.76" as="sourcePoint" />
            <mxPoint x="830" y="309.76" as="targetPoint" />
          </mxGeometry>
        </mxCell>
        <mxCell id="WgHRVZOSeJbv_-gWAW0D-11" value="Organizza" style="rhombus;whiteSpace=wrap;html=1;" vertex="1" parent="1">
          <mxGeometry x="850" y="400" width="80" height="80" as="geometry" />
        </mxCell>
        <mxCell id="WgHRVZOSeJbv_-gWAW0D-13" value="" style="endArrow=none;html=1;rounded=0;fillColor=#f5f5f5;strokeColor=#F9FFFA;exitX=0;exitY=0.5;exitDx=0;exitDy=0;entryX=1;entryY=0.5;entryDx=0;entryDy=0;" edge="1" parent="1" source="WgHRVZOSeJbv_-gWAW0D-11" target="WgHRVZOSeJbv_-gWAW0D-3">
          <mxGeometry width="50" height="50" relative="1" as="geometry">
            <mxPoint x="790" y="380" as="sourcePoint" />
            <mxPoint x="980" y="380" as="targetPoint" />
          </mxGeometry>
        </mxCell>
        <mxCell id="WgHRVZOSeJbv_-gWAW0D-14" value="" style="endArrow=none;html=1;rounded=0;fillColor=#f5f5f5;strokeColor=#F9FFFA;exitX=0.5;exitY=0;exitDx=0;exitDy=0;entryX=0.501;entryY=0.955;entryDx=0;entryDy=0;entryPerimeter=0;" edge="1" parent="1" source="WgHRVZOSeJbv_-gWAW0D-6" target="WgHRVZOSeJbv_-gWAW0D-11">
          <mxGeometry width="50" height="50" relative="1" as="geometry">
            <mxPoint x="889.76" y="527" as="sourcePoint" />
            <mxPoint x="890" y="480" as="targetPoint" />
          </mxGeometry>
        </mxCell>
        <mxCell id="WgHRVZOSeJbv_-gWAW0D-15" value="Appartiene" style="rhombus;whiteSpace=wrap;html=1;" vertex="1" parent="1">
          <mxGeometry x="850" y="680" width="80" height="80" as="geometry" />
        </mxCell>
        <mxCell id="WgHRVZOSeJbv_-gWAW0D-16" value="" style="endArrow=none;html=1;rounded=0;fillColor=#f5f5f5;strokeColor=#F9FFFA;exitX=0.5;exitY=0;exitDx=0;exitDy=0;entryX=0.5;entryY=1;entryDx=0;entryDy=0;" edge="1" parent="1" source="WgHRVZOSeJbv_-gWAW0D-15">
          <mxGeometry width="50" height="50" relative="1" as="geometry">
            <mxPoint x="790" y="660" as="sourcePoint" />
            <mxPoint x="890" y="620" as="targetPoint" />
          </mxGeometry>
        </mxCell>
        <mxCell id="WgHRVZOSeJbv_-gWAW0D-17" value="" style="endArrow=none;html=1;rounded=0;fillColor=#f5f5f5;strokeColor=#F9FFFA;exitX=0.5;exitY=0;exitDx=0;exitDy=0;entryX=0.501;entryY=0.955;entryDx=0;entryDy=0;entryPerimeter=0;" edge="1" parent="1" target="WgHRVZOSeJbv_-gWAW0D-15">
          <mxGeometry width="50" height="50" relative="1" as="geometry">
            <mxPoint x="890" y="840" as="sourcePoint" />
            <mxPoint x="890" y="760" as="targetPoint" />
          </mxGeometry>
        </mxCell>
        <mxCell id="WgHRVZOSeJbv_-gWAW0D-18" value="Appartiene" style="rhombus;whiteSpace=wrap;html=1;" vertex="1" parent="1">
          <mxGeometry x="560" y="530" width="80" height="80" as="geometry" />
        </mxCell>
        <mxCell id="WgHRVZOSeJbv_-gWAW0D-19" value="" style="endArrow=none;html=1;rounded=0;fillColor=#f5f5f5;strokeColor=#F9FFFA;exitX=0.5;exitY=0;exitDx=0;exitDy=0;entryX=0.5;entryY=1;entryDx=0;entryDy=0;" edge="1" parent="1" source="WgHRVZOSeJbv_-gWAW0D-18">
          <mxGeometry width="50" height="50" relative="1" as="geometry">
            <mxPoint x="500" y="510" as="sourcePoint" />
            <mxPoint x="600" y="470" as="targetPoint" />
          </mxGeometry>
        </mxCell>
        <mxCell id="WgHRVZOSeJbv_-gWAW0D-20" value="" style="endArrow=none;html=1;rounded=0;fillColor=#f5f5f5;strokeColor=#F9FFFA;exitX=0.5;exitY=0;exitDx=0;exitDy=0;entryX=0.501;entryY=0.955;entryDx=0;entryDy=0;entryPerimeter=0;" edge="1" parent="1" target="WgHRVZOSeJbv_-gWAW0D-18">
          <mxGeometry width="50" height="50" relative="1" as="geometry">
            <mxPoint x="600" y="690" as="sourcePoint" />
            <mxPoint x="600" y="610" as="targetPoint" />
          </mxGeometry>
        </mxCell>
        <mxCell id="WgHRVZOSeJbv_-gWAW0D-21" value="Creano" style="rhombus;whiteSpace=wrap;html=1;" vertex="1" parent="1">
          <mxGeometry x="320" y="680" width="80" height="80" as="geometry" />
        </mxCell>
        <mxCell id="WgHRVZOSeJbv_-gWAW0D-22" value="" style="endArrow=none;html=1;rounded=0;fillColor=#f5f5f5;strokeColor=#F9FFFA;exitX=0;exitY=0.5;exitDx=0;exitDy=0;" edge="1" parent="1" source="WgHRVZOSeJbv_-gWAW0D-21">
          <mxGeometry width="50" height="50" relative="1" as="geometry">
            <mxPoint x="260" y="719.76" as="sourcePoint" />
            <mxPoint x="230" y="719.76" as="targetPoint" />
          </mxGeometry>
        </mxCell>
        <mxCell id="WgHRVZOSeJbv_-gWAW0D-23" value="" style="endArrow=none;html=1;rounded=0;fillColor=#f5f5f5;strokeColor=#F9FFFA;exitX=0;exitY=0.5;exitDx=0;exitDy=0;entryX=1;entryY=0.5;entryDx=0;entryDy=0;" edge="1" parent="1" source="WgHRVZOSeJbv_-gWAW0D-7" target="WgHRVZOSeJbv_-gWAW0D-21">
          <mxGeometry width="50" height="50" relative="1" as="geometry">
            <mxPoint x="480" y="720" as="sourcePoint" />
            <mxPoint x="400" y="720" as="targetPoint" />
          </mxGeometry>
        </mxCell>
        <mxCell id="WgHRVZOSeJbv_-gWAW0D-24" value="Appartiene" style="rhombus;whiteSpace=wrap;html=1;" vertex="1" parent="1">
          <mxGeometry x="130" y="810" width="80" height="80" as="geometry" />
        </mxCell>
        <mxCell id="WgHRVZOSeJbv_-gWAW0D-25" value="" style="endArrow=none;html=1;rounded=0;fillColor=#f5f5f5;strokeColor=#F9FFFA;exitX=0.5;exitY=0;exitDx=0;exitDy=0;entryX=0.5;entryY=1;entryDx=0;entryDy=0;" edge="1" parent="1" source="WgHRVZOSeJbv_-gWAW0D-24">
          <mxGeometry width="50" height="50" relative="1" as="geometry">
            <mxPoint x="70" y="790" as="sourcePoint" />
            <mxPoint x="170" y="750" as="targetPoint" />
          </mxGeometry>
        </mxCell>
        <mxCell id="WgHRVZOSeJbv_-gWAW0D-26" value="" style="endArrow=none;html=1;rounded=0;fillColor=#f5f5f5;strokeColor=#F9FFFA;exitX=0.5;exitY=0;exitDx=0;exitDy=0;entryX=0.501;entryY=0.955;entryDx=0;entryDy=0;entryPerimeter=0;" edge="1" parent="1" target="WgHRVZOSeJbv_-gWAW0D-24">
          <mxGeometry width="50" height="50" relative="1" as="geometry">
            <mxPoint x="170" y="970" as="sourcePoint" />
            <mxPoint x="170" y="890" as="targetPoint" />
          </mxGeometry>
        </mxCell>
        <mxCell id="WgHRVZOSeJbv_-gWAW0D-27" value="&lt;h1 style=&quot;margin-top: 0px;&quot;&gt;Chiarimenti&lt;/h1&gt;&lt;div&gt;L&#39;entità Turisti non è collegata direttamente alle prenotazioni perchè il processo di prenotazione viene svolto dall&#39;utente e non dal turista&lt;/div&gt;&lt;div&gt;L&#39;entità competenza non è presente dentro lo schema logico perchè su mysql ho utilizzato un enumeratore per facilitarne l&#39;utilizzo&lt;/div&gt;" style="text;html=1;whiteSpace=wrap;overflow=hidden;rounded=0;fillColor=#f5f5f5;fontColor=#333333;strokeColor=#666666;" vertex="1" parent="1">
          <mxGeometry x="423" y="990" width="190" height="200" as="geometry" />
        </mxCell>
        <mxCell id="WgHRVZOSeJbv_-gWAW0D-28" value="1,1" style="text;html=1;align=center;verticalAlign=middle;whiteSpace=wrap;rounded=0;fillColor=#f5f5f5;fontColor=#333333;strokeColor=#666666;" vertex="1" parent="1">
          <mxGeometry x="180" y="760" width="30" height="20" as="geometry" />
        </mxCell>
        <mxCell id="WgHRVZOSeJbv_-gWAW0D-29" value="1,1" style="text;html=1;align=center;verticalAlign=middle;whiteSpace=wrap;rounded=0;fillColor=#f5f5f5;fontColor=#333333;strokeColor=#666666;" vertex="1" parent="1">
          <mxGeometry x="180" y="940" width="30" height="20" as="geometry" />
        </mxCell>
        <mxCell id="WgHRVZOSeJbv_-gWAW0D-30" value="1,N" style="text;html=1;align=center;verticalAlign=middle;whiteSpace=wrap;rounded=0;fillColor=#f5f5f5;fontColor=#333333;strokeColor=#666666;" vertex="1" parent="1">
          <mxGeometry x="380" y="280" width="30" height="20" as="geometry" />
        </mxCell>
        <mxCell id="WgHRVZOSeJbv_-gWAW0D-31" value="0,1" style="text;html=1;align=center;verticalAlign=middle;whiteSpace=wrap;rounded=0;fillColor=#f5f5f5;fontColor=#333333;strokeColor=#666666;" vertex="1" parent="1">
          <mxGeometry x="610" y="387" width="30" height="20" as="geometry" />
        </mxCell>
        <mxCell id="WgHRVZOSeJbv_-gWAW0D-32" value="1,N" style="text;html=1;align=center;verticalAlign=middle;whiteSpace=wrap;rounded=0;fillColor=#f5f5f5;fontColor=#333333;strokeColor=#666666;" vertex="1" parent="1">
          <mxGeometry x="610" y="480" width="30" height="20" as="geometry" />
        </mxCell>
        <mxCell id="WgHRVZOSeJbv_-gWAW0D-33" value="1,1" style="text;html=1;align=center;verticalAlign=middle;whiteSpace=wrap;rounded=0;fillColor=#f5f5f5;fontColor=#333333;strokeColor=#666666;" vertex="1" parent="1">
          <mxGeometry x="610" y="660" width="30" height="20" as="geometry" />
        </mxCell>
        <mxCell id="WgHRVZOSeJbv_-gWAW0D-34" value="1,N" style="text;html=1;align=center;verticalAlign=middle;whiteSpace=wrap;rounded=0;fillColor=#f5f5f5;fontColor=#333333;strokeColor=#666666;" vertex="1" parent="1">
          <mxGeometry x="850" y="630" width="30" height="20" as="geometry" />
        </mxCell>
        <mxCell id="WgHRVZOSeJbv_-gWAW0D-35" value="1,N" style="text;html=1;align=center;verticalAlign=middle;whiteSpace=wrap;rounded=0;fillColor=#f5f5f5;fontColor=#333333;strokeColor=#666666;" vertex="1" parent="1">
          <mxGeometry x="850" y="530" width="30" height="20" as="geometry" />
        </mxCell>
        <mxCell id="WgHRVZOSeJbv_-gWAW0D-36" value="1,N" style="text;html=1;align=center;verticalAlign=middle;whiteSpace=wrap;rounded=0;fillColor=#f5f5f5;fontColor=#333333;strokeColor=#666666;" vertex="1" parent="1">
          <mxGeometry x="850" y="810" width="30" height="20" as="geometry" />
        </mxCell>
        <mxCell id="WgHRVZOSeJbv_-gWAW0D-37" value="1,1" style="text;html=1;align=center;verticalAlign=middle;whiteSpace=wrap;rounded=0;fillColor=#f5f5f5;fontColor=#333333;strokeColor=#666666;" vertex="1" parent="1">
          <mxGeometry x="675" y="410" width="30" height="20" as="geometry" />
        </mxCell>
        <mxCell id="WgHRVZOSeJbv_-gWAW0D-43" value="1,N" style="text;html=1;align=center;verticalAlign=middle;whiteSpace=wrap;rounded=0;fillColor=#f5f5f5;fontColor=#333333;strokeColor=#666666;" vertex="1" parent="1">
          <mxGeometry x="240" y="690" width="30" height="20" as="geometry" />
        </mxCell>
        <mxCell id="WgHRVZOSeJbv_-gWAW0D-44" value="1,N" style="text;html=1;align=center;verticalAlign=middle;whiteSpace=wrap;rounded=0;fillColor=#f5f5f5;fontColor=#333333;strokeColor=#666666;" vertex="1" parent="1">
          <mxGeometry x="490" y="690" width="30" height="20" as="geometry" />
        </mxCell>
        <mxCell id="WgHRVZOSeJbv_-gWAW0D-46" value="" style="endArrow=none;html=1;rounded=0;fillColor=#f5f5f5;strokeColor=#F9FFFA;entryX=0.088;entryY=0.028;entryDx=0;entryDy=0;entryPerimeter=0;" edge="1" parent="1" target="WgHRVZOSeJbv_-gWAW0D-1">
          <mxGeometry width="50" height="50" relative="1" as="geometry">
            <mxPoint x="261" y="250" as="sourcePoint" />
            <mxPoint x="410" y="240" as="targetPoint" />
          </mxGeometry>
        </mxCell>
        <mxCell id="WgHRVZOSeJbv_-gWAW0D-47" value="" style="endArrow=none;html=1;rounded=0;fillColor=#f5f5f5;strokeColor=#F9FFFA;entryX=0.088;entryY=0.028;entryDx=0;entryDy=0;entryPerimeter=0;" edge="1" parent="1">
          <mxGeometry width="50" height="50" relative="1" as="geometry">
            <mxPoint x="260" y="340" as="sourcePoint" />
            <mxPoint x="260" y="372" as="targetPoint" />
          </mxGeometry>
        </mxCell>
        <mxCell id="WgHRVZOSeJbv_-gWAW0D-48" value="" style="endArrow=none;html=1;rounded=0;fillColor=#f5f5f5;strokeColor=#F9FFFA;entryX=0.013;entryY=0.163;entryDx=0;entryDy=0;entryPerimeter=0;" edge="1" parent="1" target="WgHRVZOSeJbv_-gWAW0D-1">
          <mxGeometry width="50" height="50" relative="1" as="geometry">
            <mxPoint x="210" y="290" as="sourcePoint" />
            <mxPoint x="210" y="312" as="targetPoint" />
          </mxGeometry>
        </mxCell>
        <mxCell id="WgHRVZOSeJbv_-gWAW0D-52" value="" style="ellipse;whiteSpace=wrap;html=1;aspect=fixed;" vertex="1" parent="1">
          <mxGeometry x="250" y="230" width="20" height="20" as="geometry" />
        </mxCell>
        <mxCell id="WgHRVZOSeJbv_-gWAW0D-54" value="id" style="text;html=1;align=center;verticalAlign=middle;whiteSpace=wrap;rounded=0;fillColor=#f5f5f5;fontColor=#333333;strokeColor=#666666;" vertex="1" parent="1">
          <mxGeometry x="245" y="200" width="30" height="20" as="geometry" />
        </mxCell>
        <mxCell id="WgHRVZOSeJbv_-gWAW0D-55" value="" style="endArrow=none;html=1;rounded=0;fillColor=#f5f5f5;strokeColor=#F9FFFA;entryX=0.088;entryY=0.028;entryDx=0;entryDy=0;entryPerimeter=0;" edge="1" parent="1">
          <mxGeometry width="50" height="50" relative="1" as="geometry">
            <mxPoint x="306" y="249" as="sourcePoint" />
            <mxPoint x="306" y="281" as="targetPoint" />
          </mxGeometry>
        </mxCell>
        <mxCell id="WgHRVZOSeJbv_-gWAW0D-56" value="" style="ellipse;whiteSpace=wrap;html=1;aspect=fixed;" vertex="1" parent="1">
          <mxGeometry x="295" y="229" width="20" height="20" as="geometry" />
        </mxCell>
        <mxCell id="WgHRVZOSeJbv_-gWAW0D-57" value="titolo&amp;nbsp;" style="text;html=1;align=center;verticalAlign=middle;whiteSpace=wrap;rounded=0;fillColor=#f5f5f5;fontColor=#333333;strokeColor=#666666;" vertex="1" parent="1">
          <mxGeometry x="290" y="200" width="40" height="19" as="geometry" />
        </mxCell>
        <mxCell id="WgHRVZOSeJbv_-gWAW0D-58" value="" style="ellipse;whiteSpace=wrap;html=1;aspect=fixed;" vertex="1" parent="1">
          <mxGeometry x="190" y="280" width="20" height="20" as="geometry" />
        </mxCell>
        <mxCell id="WgHRVZOSeJbv_-gWAW0D-59" value="" style="ellipse;whiteSpace=wrap;html=1;aspect=fixed;" vertex="1" parent="1">
          <mxGeometry x="250" y="367" width="20" height="20" as="geometry" />
        </mxCell>
        <mxCell id="WgHRVZOSeJbv_-gWAW0D-60" value="luogo&amp;nbsp;" style="text;html=1;align=center;verticalAlign=middle;whiteSpace=wrap;rounded=0;fillColor=#f5f5f5;fontColor=#333333;strokeColor=#666666;" vertex="1" parent="1">
          <mxGeometry x="130" y="280" width="55" height="20" as="geometry" />
        </mxCell>
        <mxCell id="WgHRVZOSeJbv_-gWAW0D-61" value="durata_media&amp;nbsp;" style="text;html=1;align=center;verticalAlign=middle;whiteSpace=wrap;rounded=0;fillColor=#f5f5f5;fontColor=#333333;strokeColor=#666666;" vertex="1" parent="1">
          <mxGeometry x="230" y="390" width="75" height="20" as="geometry" />
        </mxCell>
        <mxCell id="WgHRVZOSeJbv_-gWAW0D-63" value="" style="endArrow=none;html=1;rounded=0;fillColor=#f5f5f5;strokeColor=#F9FFFA;entryX=0.088;entryY=0.028;entryDx=0;entryDy=0;entryPerimeter=0;" edge="1" parent="1">
          <mxGeometry width="50" height="50" relative="1" as="geometry">
            <mxPoint x="836" y="530" as="sourcePoint" />
            <mxPoint x="836" y="562" as="targetPoint" />
          </mxGeometry>
        </mxCell>
        <mxCell id="WgHRVZOSeJbv_-gWAW0D-64" value="" style="ellipse;whiteSpace=wrap;html=1;aspect=fixed;" vertex="1" parent="1">
          <mxGeometry x="825" y="510" width="20" height="20" as="geometry" />
        </mxCell>
        <mxCell id="WgHRVZOSeJbv_-gWAW0D-65" value="id" style="text;html=1;align=center;verticalAlign=middle;whiteSpace=wrap;rounded=0;fillColor=#f5f5f5;fontColor=#333333;strokeColor=#666666;" vertex="1" parent="1">
          <mxGeometry x="820" y="480" width="30" height="20" as="geometry" />
        </mxCell>
        <mxCell id="WgHRVZOSeJbv_-gWAW0D-66" value="" style="endArrow=none;html=1;rounded=0;fillColor=#f5f5f5;strokeColor=#F9FFFA;entryX=0.088;entryY=0.028;entryDx=0;entryDy=0;entryPerimeter=0;" edge="1" parent="1">
          <mxGeometry width="50" height="50" relative="1" as="geometry">
            <mxPoint x="916" y="530" as="sourcePoint" />
            <mxPoint x="916" y="562" as="targetPoint" />
          </mxGeometry>
        </mxCell>
        <mxCell id="WgHRVZOSeJbv_-gWAW0D-67" value="" style="ellipse;whiteSpace=wrap;html=1;aspect=fixed;" vertex="1" parent="1">
          <mxGeometry x="905" y="510" width="20" height="20" as="geometry" />
        </mxCell>
        <mxCell id="WgHRVZOSeJbv_-gWAW0D-68" value="id" style="text;html=1;align=center;verticalAlign=middle;whiteSpace=wrap;rounded=0;fillColor=#f5f5f5;fontColor=#333333;strokeColor=#666666;" vertex="1" parent="1">
          <mxGeometry x="900" y="480" width="30" height="20" as="geometry" />
        </mxCell>
        <mxCell id="WgHRVZOSeJbv_-gWAW0D-69" value="" style="endArrow=none;html=1;rounded=0;fillColor=#f5f5f5;strokeColor=#F9FFFA;entryX=0.088;entryY=0.028;entryDx=0;entryDy=0;entryPerimeter=0;" edge="1" parent="1">
          <mxGeometry width="50" height="50" relative="1" as="geometry">
            <mxPoint x="916" y="530" as="sourcePoint" />
            <mxPoint x="916" y="562" as="targetPoint" />
          </mxGeometry>
        </mxCell>
        <mxCell id="WgHRVZOSeJbv_-gWAW0D-70" value="" style="ellipse;whiteSpace=wrap;html=1;aspect=fixed;" vertex="1" parent="1">
          <mxGeometry x="905" y="510" width="20" height="20" as="geometry" />
        </mxCell>
        <mxCell id="WgHRVZOSeJbv_-gWAW0D-71" value="Cogn" style="text;html=1;align=center;verticalAlign=middle;whiteSpace=wrap;rounded=0;fillColor=#f5f5f5;fontColor=#333333;strokeColor=#666666;" vertex="1" parent="1">
          <mxGeometry x="900" y="480" width="30" height="20" as="geometry" />
        </mxCell>
        <mxCell id="WgHRVZOSeJbv_-gWAW0D-72" value="" style="endArrow=none;html=1;rounded=0;fillColor=#f5f5f5;strokeColor=#F9FFFA;entryX=0.088;entryY=0.028;entryDx=0;entryDy=0;entryPerimeter=0;" edge="1" parent="1">
          <mxGeometry width="50" height="50" relative="1" as="geometry">
            <mxPoint x="946" y="529" as="sourcePoint" />
            <mxPoint x="946" y="561" as="targetPoint" />
          </mxGeometry>
        </mxCell>
        <mxCell id="WgHRVZOSeJbv_-gWAW0D-73" value="" style="ellipse;whiteSpace=wrap;html=1;aspect=fixed;" vertex="1" parent="1">
          <mxGeometry x="935" y="509" width="20" height="20" as="geometry" />
        </mxCell>
        <mxCell id="WgHRVZOSeJbv_-gWAW0D-74" value="Nome" style="text;html=1;align=center;verticalAlign=middle;whiteSpace=wrap;rounded=0;fillColor=#f5f5f5;fontColor=#333333;strokeColor=#666666;" vertex="1" parent="1">
          <mxGeometry x="930" y="479" width="30" height="20" as="geometry" />
        </mxCell>
        <mxCell id="WgHRVZOSeJbv_-gWAW0D-78" value="" style="endArrow=none;html=1;rounded=0;fillColor=#f5f5f5;strokeColor=#F9FFFA;entryX=0.013;entryY=0.163;entryDx=0;entryDy=0;entryPerimeter=0;" edge="1" parent="1">
          <mxGeometry width="50" height="50" relative="1" as="geometry">
            <mxPoint x="788" y="570" as="sourcePoint" />
            <mxPoint x="830" y="570" as="targetPoint" />
          </mxGeometry>
        </mxCell>
        <mxCell id="WgHRVZOSeJbv_-gWAW0D-79" value="" style="ellipse;whiteSpace=wrap;html=1;aspect=fixed;" vertex="1" parent="1">
          <mxGeometry x="768" y="560" width="20" height="20" as="geometry" />
        </mxCell>
        <mxCell id="WgHRVZOSeJbv_-gWAW0D-80" value="data_nasc" style="text;html=1;align=center;verticalAlign=middle;whiteSpace=wrap;rounded=0;fillColor=#f5f5f5;fontColor=#333333;strokeColor=#666666;" vertex="1" parent="1">
          <mxGeometry x="708" y="560" width="55" height="20" as="geometry" />
        </mxCell>
        <mxCell id="WgHRVZOSeJbv_-gWAW0D-81" value="" style="endArrow=none;html=1;rounded=0;fillColor=#f5f5f5;strokeColor=#F9FFFA;entryX=0.013;entryY=0.163;entryDx=0;entryDy=0;entryPerimeter=0;" edge="1" parent="1">
          <mxGeometry width="50" height="50" relative="1" as="geometry">
            <mxPoint x="788" y="600" as="sourcePoint" />
            <mxPoint x="830" y="600" as="targetPoint" />
          </mxGeometry>
        </mxCell>
        <mxCell id="WgHRVZOSeJbv_-gWAW0D-82" value="" style="ellipse;whiteSpace=wrap;html=1;aspect=fixed;" vertex="1" parent="1">
          <mxGeometry x="768" y="590" width="20" height="20" as="geometry" />
        </mxCell>
        <mxCell id="WgHRVZOSeJbv_-gWAW0D-83" value="luogo _nasc" style="text;html=1;align=center;verticalAlign=middle;whiteSpace=wrap;rounded=0;fillColor=#f5f5f5;fontColor=#333333;strokeColor=#666666;" vertex="1" parent="1">
          <mxGeometry x="700" y="590" width="63" height="30" as="geometry" />
        </mxCell>
        <mxCell id="WgHRVZOSeJbv_-gWAW0D-86" value="" style="endArrow=none;html=1;rounded=0;fillColor=#f5f5f5;strokeColor=#F9FFFA;entryX=0.088;entryY=0.028;entryDx=0;entryDy=0;entryPerimeter=0;" edge="1" parent="1">
          <mxGeometry width="50" height="50" relative="1" as="geometry">
            <mxPoint x="930" y="620" as="sourcePoint" />
            <mxPoint x="930" y="652" as="targetPoint" />
          </mxGeometry>
        </mxCell>
        <mxCell id="WgHRVZOSeJbv_-gWAW0D-87" value="" style="ellipse;whiteSpace=wrap;html=1;aspect=fixed;" vertex="1" parent="1">
          <mxGeometry x="920" y="647" width="20" height="20" as="geometry" />
        </mxCell>
        <mxCell id="WgHRVZOSeJbv_-gWAW0D-88" value="titolo_studio" style="text;html=1;align=center;verticalAlign=middle;whiteSpace=wrap;rounded=0;fillColor=#f5f5f5;fontColor=#333333;strokeColor=#666666;" vertex="1" parent="1">
          <mxGeometry x="900" y="670" width="75" height="20" as="geometry" />
        </mxCell>
        <mxCell id="WgHRVZOSeJbv_-gWAW0D-89" value="" style="endArrow=none;html=1;rounded=0;fillColor=#f5f5f5;strokeColor=#F9FFFA;entryX=0.013;entryY=0.163;entryDx=0;entryDy=0;entryPerimeter=0;" edge="1" parent="1">
          <mxGeometry width="50" height="50" relative="1" as="geometry">
            <mxPoint x="498" y="417" as="sourcePoint" />
            <mxPoint x="540" y="417" as="targetPoint" />
          </mxGeometry>
        </mxCell>
        <mxCell id="WgHRVZOSeJbv_-gWAW0D-90" value="" style="ellipse;whiteSpace=wrap;html=1;aspect=fixed;" vertex="1" parent="1">
          <mxGeometry x="478" y="407" width="20" height="20" as="geometry" />
        </mxCell>
        <mxCell id="WgHRVZOSeJbv_-gWAW0D-91" value="prezzo" style="text;html=1;align=center;verticalAlign=middle;whiteSpace=wrap;rounded=0;fillColor=#f5f5f5;fontColor=#333333;strokeColor=#666666;" vertex="1" parent="1">
          <mxGeometry x="418" y="407" width="55" height="20" as="geometry" />
        </mxCell>
        <mxCell id="WgHRVZOSeJbv_-gWAW0D-92" value="" style="endArrow=none;html=1;rounded=0;fillColor=#f5f5f5;strokeColor=#F9FFFA;entryX=0.013;entryY=0.163;entryDx=0;entryDy=0;entryPerimeter=0;" edge="1" parent="1">
          <mxGeometry width="50" height="50" relative="1" as="geometry">
            <mxPoint x="498" y="440" as="sourcePoint" />
            <mxPoint x="540" y="440" as="targetPoint" />
          </mxGeometry>
        </mxCell>
        <mxCell id="WgHRVZOSeJbv_-gWAW0D-93" value="" style="ellipse;whiteSpace=wrap;html=1;aspect=fixed;" vertex="1" parent="1">
          <mxGeometry x="478" y="430" width="20" height="20" as="geometry" />
        </mxCell>
        <mxCell id="WgHRVZOSeJbv_-gWAW0D-94" value="ora_inizio" style="text;html=1;align=center;verticalAlign=middle;whiteSpace=wrap;rounded=0;fillColor=#f5f5f5;fontColor=#333333;strokeColor=#666666;" vertex="1" parent="1">
          <mxGeometry x="418" y="430" width="55" height="20" as="geometry" />
        </mxCell>
        <mxCell id="WgHRVZOSeJbv_-gWAW0D-95" value="" style="endArrow=none;html=1;rounded=0;fillColor=#f5f5f5;strokeColor=#F9FFFA;entryX=0.013;entryY=0.163;entryDx=0;entryDy=0;entryPerimeter=0;" edge="1" parent="1">
          <mxGeometry width="50" height="50" relative="1" as="geometry">
            <mxPoint x="498" y="460" as="sourcePoint" />
            <mxPoint x="540" y="460" as="targetPoint" />
          </mxGeometry>
        </mxCell>
        <mxCell id="WgHRVZOSeJbv_-gWAW0D-96" value="" style="ellipse;whiteSpace=wrap;html=1;aspect=fixed;" vertex="1" parent="1">
          <mxGeometry x="478" y="450" width="20" height="20" as="geometry" />
        </mxCell>
        <mxCell id="WgHRVZOSeJbv_-gWAW0D-97" value="num_min" style="text;html=1;align=center;verticalAlign=middle;whiteSpace=wrap;rounded=0;fillColor=#f5f5f5;fontColor=#333333;strokeColor=#666666;" vertex="1" parent="1">
          <mxGeometry x="418" y="450" width="55" height="20" as="geometry" />
        </mxCell>
        <mxCell id="WgHRVZOSeJbv_-gWAW0D-98" value="" style="endArrow=none;html=1;rounded=0;fillColor=#f5f5f5;strokeColor=#F9FFFA;entryX=0.088;entryY=0.028;entryDx=0;entryDy=0;entryPerimeter=0;" edge="1" parent="1">
          <mxGeometry width="50" height="50" relative="1" as="geometry">
            <mxPoint x="546" y="378" as="sourcePoint" />
            <mxPoint x="546" y="410" as="targetPoint" />
          </mxGeometry>
        </mxCell>
        <mxCell id="WgHRVZOSeJbv_-gWAW0D-99" value="" style="ellipse;whiteSpace=wrap;html=1;aspect=fixed;" vertex="1" parent="1">
          <mxGeometry x="535" y="358" width="20" height="20" as="geometry" />
        </mxCell>
        <mxCell id="WgHRVZOSeJbv_-gWAW0D-100" value="id" style="text;html=1;align=center;verticalAlign=middle;whiteSpace=wrap;rounded=0;fillColor=#f5f5f5;fontColor=#333333;strokeColor=#666666;" vertex="1" parent="1">
          <mxGeometry x="530" y="329" width="40" height="19" as="geometry" />
        </mxCell>
        <mxCell id="WgHRVZOSeJbv_-gWAW0D-101" value="" style="endArrow=none;html=1;rounded=0;fillColor=#f5f5f5;strokeColor=#F9FFFA;entryX=0.088;entryY=0.028;entryDx=0;entryDy=0;entryPerimeter=0;" edge="1" parent="1">
          <mxGeometry width="50" height="50" relative="1" as="geometry">
            <mxPoint x="550" y="470" as="sourcePoint" />
            <mxPoint x="550" y="502" as="targetPoint" />
          </mxGeometry>
        </mxCell>
        <mxCell id="WgHRVZOSeJbv_-gWAW0D-102" value="" style="ellipse;whiteSpace=wrap;html=1;aspect=fixed;" vertex="1" parent="1">
          <mxGeometry x="540" y="497" width="20" height="20" as="geometry" />
        </mxCell>
        <mxCell id="WgHRVZOSeJbv_-gWAW0D-103" value="num_massimo" style="text;html=1;align=center;verticalAlign=middle;whiteSpace=wrap;rounded=0;fillColor=#f5f5f5;fontColor=#333333;strokeColor=#666666;" vertex="1" parent="1">
          <mxGeometry x="490" y="520" width="92.5" height="20" as="geometry" />
        </mxCell>
        <mxCell id="WgHRVZOSeJbv_-gWAW0D-104" value="Livello_competenza" style="rounded=0;whiteSpace=wrap;html=1;" vertex="1" parent="1">
          <mxGeometry x="830" y="1120" width="120" height="60" as="geometry" />
        </mxCell>
        <mxCell id="WgHRVZOSeJbv_-gWAW0D-105" value="Appartiene" style="rhombus;whiteSpace=wrap;html=1;" vertex="1" parent="1">
          <mxGeometry x="850" y="960" width="80" height="80" as="geometry" />
        </mxCell>
        <mxCell id="WgHRVZOSeJbv_-gWAW0D-106" value="" style="endArrow=none;html=1;rounded=0;fillColor=#f5f5f5;strokeColor=#F9FFFA;exitX=0.5;exitY=0;exitDx=0;exitDy=0;entryX=0.5;entryY=1;entryDx=0;entryDy=0;" edge="1" parent="1" source="WgHRVZOSeJbv_-gWAW0D-105">
          <mxGeometry width="50" height="50" relative="1" as="geometry">
            <mxPoint x="790" y="940" as="sourcePoint" />
            <mxPoint x="890" y="900" as="targetPoint" />
          </mxGeometry>
        </mxCell>
        <mxCell id="WgHRVZOSeJbv_-gWAW0D-107" value="" style="endArrow=none;html=1;rounded=0;fillColor=#f5f5f5;strokeColor=#F9FFFA;exitX=0.5;exitY=0;exitDx=0;exitDy=0;entryX=0.501;entryY=0.955;entryDx=0;entryDy=0;entryPerimeter=0;" edge="1" parent="1" target="WgHRVZOSeJbv_-gWAW0D-105">
          <mxGeometry width="50" height="50" relative="1" as="geometry">
            <mxPoint x="890" y="1120" as="sourcePoint" />
            <mxPoint x="890" y="1040" as="targetPoint" />
          </mxGeometry>
        </mxCell>
        <mxCell id="WgHRVZOSeJbv_-gWAW0D-108" value="1,1" style="text;html=1;align=center;verticalAlign=middle;whiteSpace=wrap;rounded=0;fillColor=#f5f5f5;fontColor=#333333;strokeColor=#666666;" vertex="1" parent="1">
          <mxGeometry x="900" y="910" width="30" height="20" as="geometry" />
        </mxCell>
        <mxCell id="WgHRVZOSeJbv_-gWAW0D-109" value="1,1" style="text;html=1;align=center;verticalAlign=middle;whiteSpace=wrap;rounded=0;fillColor=#f5f5f5;fontColor=#333333;strokeColor=#666666;" vertex="1" parent="1">
          <mxGeometry x="900" y="1090" width="30" height="20" as="geometry" />
        </mxCell>
        <mxCell id="WgHRVZOSeJbv_-gWAW0D-110" value="" style="endArrow=none;html=1;rounded=0;fillColor=#f5f5f5;strokeColor=#F9FFFA;entryX=0.088;entryY=0.028;entryDx=0;entryDy=0;entryPerimeter=0;" edge="1" parent="1">
          <mxGeometry width="50" height="50" relative="1" as="geometry">
            <mxPoint x="846" y="1088" as="sourcePoint" />
            <mxPoint x="846" y="1120" as="targetPoint" />
          </mxGeometry>
        </mxCell>
        <mxCell id="WgHRVZOSeJbv_-gWAW0D-111" value="" style="ellipse;whiteSpace=wrap;html=1;aspect=fixed;" vertex="1" parent="1">
          <mxGeometry x="835" y="1068" width="20" height="20" as="geometry" />
        </mxCell>
        <mxCell id="WgHRVZOSeJbv_-gWAW0D-112" value="id" style="text;html=1;align=center;verticalAlign=middle;whiteSpace=wrap;rounded=0;fillColor=#f5f5f5;fontColor=#333333;strokeColor=#666666;" vertex="1" parent="1">
          <mxGeometry x="830" y="1038" width="30" height="20" as="geometry" />
        </mxCell>
        <mxCell id="WgHRVZOSeJbv_-gWAW0D-113" value="" style="endArrow=none;html=1;rounded=0;fillColor=#f5f5f5;strokeColor=#F9FFFA;entryX=0.013;entryY=0.163;entryDx=0;entryDy=0;entryPerimeter=0;" edge="1" parent="1">
          <mxGeometry width="50" height="50" relative="1" as="geometry">
            <mxPoint x="788" y="1130" as="sourcePoint" />
            <mxPoint x="830" y="1130" as="targetPoint" />
          </mxGeometry>
        </mxCell>
        <mxCell id="WgHRVZOSeJbv_-gWAW0D-114" value="" style="ellipse;whiteSpace=wrap;html=1;aspect=fixed;" vertex="1" parent="1">
          <mxGeometry x="768" y="1120" width="20" height="20" as="geometry" />
        </mxCell>
        <mxCell id="WgHRVZOSeJbv_-gWAW0D-115" value="competenza" style="text;html=1;align=center;verticalAlign=middle;whiteSpace=wrap;rounded=0;fillColor=#f5f5f5;fontColor=#333333;strokeColor=#666666;" vertex="1" parent="1">
          <mxGeometry x="670" y="1120" width="93" height="20" as="geometry" />
        </mxCell>
        <mxCell id="WgHRVZOSeJbv_-gWAW0D-118" value="" style="endArrow=none;html=1;rounded=0;fillColor=#f5f5f5;strokeColor=#F9FFFA;" edge="1" parent="1">
          <mxGeometry width="50" height="50" relative="1" as="geometry">
            <mxPoint x="910" y="800" as="sourcePoint" />
            <mxPoint x="830" y="800" as="targetPoint" />
          </mxGeometry>
        </mxCell>
        <mxCell id="WgHRVZOSeJbv_-gWAW0D-119" value="" style="ellipse;whiteSpace=wrap;html=1;aspect=fixed;" vertex="1" parent="1">
          <mxGeometry x="810" y="790" width="20" height="20" as="geometry" />
        </mxCell>
        <mxCell id="WgHRVZOSeJbv_-gWAW0D-120" value="id_guida" style="text;html=1;align=center;verticalAlign=middle;whiteSpace=wrap;rounded=0;fillColor=#f5f5f5;fontColor=#333333;strokeColor=#666666;" vertex="1" parent="1">
          <mxGeometry x="750.5" y="790" width="55" height="20" as="geometry" />
        </mxCell>
        <mxCell id="WgHRVZOSeJbv_-gWAW0D-123" value="" style="endArrow=none;html=1;rounded=0;fillColor=#f5f5f5;strokeColor=#F9FFFA;entryX=0.013;entryY=0.163;entryDx=0;entryDy=0;entryPerimeter=0;" edge="1" parent="1">
          <mxGeometry width="50" height="50" relative="1" as="geometry">
            <mxPoint x="788" y="860" as="sourcePoint" />
            <mxPoint x="830" y="860" as="targetPoint" />
          </mxGeometry>
        </mxCell>
        <mxCell id="WgHRVZOSeJbv_-gWAW0D-124" value="" style="ellipse;whiteSpace=wrap;html=1;aspect=fixed;" vertex="1" parent="1">
          <mxGeometry x="768" y="850" width="20" height="20" as="geometry" />
        </mxCell>
        <mxCell id="WgHRVZOSeJbv_-gWAW0D-125" value="lingua" style="text;html=1;align=center;verticalAlign=middle;whiteSpace=wrap;rounded=0;fillColor=#f5f5f5;fontColor=#333333;strokeColor=#666666;" vertex="1" parent="1">
          <mxGeometry x="708" y="850" width="55" height="20" as="geometry" />
        </mxCell>
        <mxCell id="WgHRVZOSeJbv_-gWAW0D-135" value="" style="endArrow=none;html=1;rounded=0;fillColor=#f5f5f5;strokeColor=#F9FFFA;entryX=0.088;entryY=0.028;entryDx=0;entryDy=0;entryPerimeter=0;" edge="1" parent="1">
          <mxGeometry width="50" height="50" relative="1" as="geometry">
            <mxPoint x="126" y="938" as="sourcePoint" />
            <mxPoint x="126" y="970" as="targetPoint" />
          </mxGeometry>
        </mxCell>
        <mxCell id="WgHRVZOSeJbv_-gWAW0D-136" value="" style="ellipse;whiteSpace=wrap;html=1;aspect=fixed;" vertex="1" parent="1">
          <mxGeometry x="115" y="918" width="20" height="20" as="geometry" />
        </mxCell>
        <mxCell id="WgHRVZOSeJbv_-gWAW0D-137" value="id" style="text;html=1;align=center;verticalAlign=middle;whiteSpace=wrap;rounded=0;fillColor=#f5f5f5;fontColor=#333333;strokeColor=#666666;" vertex="1" parent="1">
          <mxGeometry x="110" y="888" width="30" height="20" as="geometry" />
        </mxCell>
        <mxCell id="WgHRVZOSeJbv_-gWAW0D-144" value="" style="endArrow=none;html=1;rounded=0;fillColor=#f5f5f5;strokeColor=#F9FFFA;entryX=0.088;entryY=0.028;entryDx=0;entryDy=0;entryPerimeter=0;" edge="1" parent="1">
          <mxGeometry width="50" height="50" relative="1" as="geometry">
            <mxPoint x="130" y="1030" as="sourcePoint" />
            <mxPoint x="130" y="1062" as="targetPoint" />
          </mxGeometry>
        </mxCell>
        <mxCell id="WgHRVZOSeJbv_-gWAW0D-145" value="" style="ellipse;whiteSpace=wrap;html=1;aspect=fixed;" vertex="1" parent="1">
          <mxGeometry x="120" y="1057" width="20" height="20" as="geometry" />
        </mxCell>
        <mxCell id="WgHRVZOSeJbv_-gWAW0D-146" value="lingua" style="text;html=1;align=center;verticalAlign=middle;whiteSpace=wrap;rounded=0;fillColor=#f5f5f5;fontColor=#333333;strokeColor=#666666;" vertex="1" parent="1">
          <mxGeometry x="110" y="1088" width="40" height="20" as="geometry" />
        </mxCell>
        <mxCell id="WgHRVZOSeJbv_-gWAW0D-150" value="" style="endArrow=none;html=1;rounded=0;fillColor=#f5f5f5;strokeColor=#F9FFFA;entryX=0.088;entryY=0.028;entryDx=0;entryDy=0;entryPerimeter=0;" edge="1" parent="1">
          <mxGeometry width="50" height="50" relative="1" as="geometry">
            <mxPoint x="185" y="1030" as="sourcePoint" />
            <mxPoint x="185" y="1062" as="targetPoint" />
          </mxGeometry>
        </mxCell>
        <mxCell id="WgHRVZOSeJbv_-gWAW0D-151" value="" style="ellipse;whiteSpace=wrap;html=1;aspect=fixed;" vertex="1" parent="1">
          <mxGeometry x="175" y="1057" width="20" height="20" as="geometry" />
        </mxCell>
        <mxCell id="WgHRVZOSeJbv_-gWAW0D-152" value="telefono" style="text;html=1;align=center;verticalAlign=middle;whiteSpace=wrap;rounded=0;fillColor=#f5f5f5;fontColor=#333333;strokeColor=#666666;" vertex="1" parent="1">
          <mxGeometry x="170" y="1086" width="55" height="24" as="geometry" />
        </mxCell>
        <mxCell id="WgHRVZOSeJbv_-gWAW0D-153" value="" style="endArrow=none;html=1;rounded=0;fillColor=#f5f5f5;strokeColor=#F9FFFA;entryX=0.013;entryY=0.163;entryDx=0;entryDy=0;entryPerimeter=0;" edge="1" parent="1">
          <mxGeometry width="50" height="50" relative="1" as="geometry">
            <mxPoint x="228" y="980" as="sourcePoint" />
            <mxPoint x="270" y="980" as="targetPoint" />
          </mxGeometry>
        </mxCell>
        <mxCell id="WgHRVZOSeJbv_-gWAW0D-154" value="" style="ellipse;whiteSpace=wrap;html=1;aspect=fixed;" vertex="1" parent="1">
          <mxGeometry x="270.5" y="970" width="20" height="20" as="geometry" />
        </mxCell>
        <mxCell id="WgHRVZOSeJbv_-gWAW0D-155" value="nome" style="text;html=1;align=center;verticalAlign=middle;whiteSpace=wrap;rounded=0;fillColor=#f5f5f5;fontColor=#333333;strokeColor=#666666;" vertex="1" parent="1">
          <mxGeometry x="295" y="970" width="55" height="20" as="geometry" />
        </mxCell>
        <mxCell id="WgHRVZOSeJbv_-gWAW0D-158" value="Nazionalità" style="text;html=1;align=center;verticalAlign=middle;whiteSpace=wrap;rounded=0;fillColor=#f5f5f5;fontColor=#333333;strokeColor=#666666;" vertex="1" parent="1">
          <mxGeometry x="295" y="1000" width="65" height="20" as="geometry" />
        </mxCell>
        <mxCell id="WgHRVZOSeJbv_-gWAW0D-160" value="" style="endArrow=none;html=1;rounded=0;fillColor=#f5f5f5;strokeColor=#F9FFFA;entryX=0.013;entryY=0.163;entryDx=0;entryDy=0;entryPerimeter=0;" edge="1" parent="1">
          <mxGeometry width="50" height="50" relative="1" as="geometry">
            <mxPoint x="228.75" y="1010" as="sourcePoint" />
            <mxPoint x="270.75" y="1010" as="targetPoint" />
          </mxGeometry>
        </mxCell>
        <mxCell id="WgHRVZOSeJbv_-gWAW0D-161" value="" style="ellipse;whiteSpace=wrap;html=1;aspect=fixed;" vertex="1" parent="1">
          <mxGeometry x="271.25" y="1000" width="20" height="20" as="geometry" />
        </mxCell>
        <mxCell id="WgHRVZOSeJbv_-gWAW0D-164" value="" style="endArrow=none;html=1;rounded=0;fillColor=#f5f5f5;strokeColor=#F9FFFA;entryX=0.088;entryY=0.028;entryDx=0;entryDy=0;entryPerimeter=0;" edge="1" parent="1">
          <mxGeometry width="50" height="50" relative="1" as="geometry">
            <mxPoint x="121" y="658" as="sourcePoint" />
            <mxPoint x="121" y="690" as="targetPoint" />
          </mxGeometry>
        </mxCell>
        <mxCell id="WgHRVZOSeJbv_-gWAW0D-165" value="" style="ellipse;whiteSpace=wrap;html=1;aspect=fixed;" vertex="1" parent="1">
          <mxGeometry x="110" y="638" width="20" height="20" as="geometry" />
        </mxCell>
        <mxCell id="WgHRVZOSeJbv_-gWAW0D-166" value="id" style="text;html=1;align=center;verticalAlign=middle;whiteSpace=wrap;rounded=0;fillColor=#f5f5f5;fontColor=#333333;strokeColor=#666666;" vertex="1" parent="1">
          <mxGeometry x="105" y="608" width="30" height="20" as="geometry" />
        </mxCell>
        <mxCell id="WgHRVZOSeJbv_-gWAW0D-167" value="" style="endArrow=none;html=1;rounded=0;fillColor=#f5f5f5;strokeColor=#F9FFFA;entryX=0.088;entryY=0.028;entryDx=0;entryDy=0;entryPerimeter=0;" edge="1" parent="1">
          <mxGeometry width="50" height="50" relative="1" as="geometry">
            <mxPoint x="158.5" y="657" as="sourcePoint" />
            <mxPoint x="158.5" y="689" as="targetPoint" />
          </mxGeometry>
        </mxCell>
        <mxCell id="WgHRVZOSeJbv_-gWAW0D-168" value="" style="ellipse;whiteSpace=wrap;html=1;aspect=fixed;" vertex="1" parent="1">
          <mxGeometry x="147.5" y="637" width="20" height="20" as="geometry" />
        </mxCell>
        <mxCell id="WgHRVZOSeJbv_-gWAW0D-169" value="email" style="text;html=1;align=center;verticalAlign=middle;whiteSpace=wrap;rounded=0;fillColor=#f5f5f5;fontColor=#333333;strokeColor=#666666;" vertex="1" parent="1">
          <mxGeometry x="142.5" y="607" width="30" height="20" as="geometry" />
        </mxCell>
        <mxCell id="WgHRVZOSeJbv_-gWAW0D-170" value="" style="endArrow=none;html=1;rounded=0;fillColor=#f5f5f5;strokeColor=#F9FFFA;entryX=0.088;entryY=0.028;entryDx=0;entryDy=0;entryPerimeter=0;" edge="1" parent="1">
          <mxGeometry width="50" height="50" relative="1" as="geometry">
            <mxPoint x="196" y="658" as="sourcePoint" />
            <mxPoint x="196" y="690" as="targetPoint" />
          </mxGeometry>
        </mxCell>
        <mxCell id="WgHRVZOSeJbv_-gWAW0D-171" value="" style="ellipse;whiteSpace=wrap;html=1;aspect=fixed;" vertex="1" parent="1">
          <mxGeometry x="185" y="638" width="20" height="20" as="geometry" />
        </mxCell>
        <mxCell id="WgHRVZOSeJbv_-gWAW0D-172" value="pass" style="text;html=1;align=center;verticalAlign=middle;whiteSpace=wrap;rounded=0;fillColor=#f5f5f5;fontColor=#333333;strokeColor=#666666;" vertex="1" parent="1">
          <mxGeometry x="180" y="608" width="30" height="20" as="geometry" />
        </mxCell>
        <mxCell id="WgHRVZOSeJbv_-gWAW0D-173" value="" style="endArrow=none;html=1;rounded=0;fillColor=#f5f5f5;strokeColor=#F9FFFA;entryX=0.088;entryY=0.028;entryDx=0;entryDy=0;entryPerimeter=0;" edge="1" parent="1">
          <mxGeometry width="50" height="50" relative="1" as="geometry">
            <mxPoint x="122.5" y="750" as="sourcePoint" />
            <mxPoint x="122.5" y="782" as="targetPoint" />
          </mxGeometry>
        </mxCell>
        <mxCell id="WgHRVZOSeJbv_-gWAW0D-174" value="" style="ellipse;whiteSpace=wrap;html=1;aspect=fixed;" vertex="1" parent="1">
          <mxGeometry x="112.5" y="777" width="20" height="20" as="geometry" />
        </mxCell>
        <mxCell id="WgHRVZOSeJbv_-gWAW0D-175" value="data_reg" style="text;html=1;align=center;verticalAlign=middle;whiteSpace=wrap;rounded=0;fillColor=#f5f5f5;fontColor=#333333;strokeColor=#666666;" vertex="1" parent="1">
          <mxGeometry x="100" y="808" width="42.5" height="22" as="geometry" />
        </mxCell>
        <mxCell id="WgHRVZOSeJbv_-gWAW0D-179" value="" style="endArrow=none;html=1;rounded=0;fillColor=#f5f5f5;strokeColor=#F9FFFA;entryX=0.088;entryY=0.028;entryDx=0;entryDy=0;entryPerimeter=0;" edge="1" parent="1">
          <mxGeometry width="50" height="50" relative="1" as="geometry">
            <mxPoint x="226" y="658" as="sourcePoint" />
            <mxPoint x="226" y="690" as="targetPoint" />
          </mxGeometry>
        </mxCell>
        <mxCell id="WgHRVZOSeJbv_-gWAW0D-180" value="" style="ellipse;whiteSpace=wrap;html=1;aspect=fixed;" vertex="1" parent="1">
          <mxGeometry x="215" y="638" width="20" height="20" as="geometry" />
        </mxCell>
        <mxCell id="WgHRVZOSeJbv_-gWAW0D-181" value="Username" style="text;html=1;align=center;verticalAlign=middle;whiteSpace=wrap;rounded=0;fillColor=#f5f5f5;fontColor=#333333;strokeColor=#666666;" vertex="1" parent="1">
          <mxGeometry x="210" y="608" width="70" height="22" as="geometry" />
        </mxCell>
        <mxCell id="WgHRVZOSeJbv_-gWAW0D-182" value="" style="endArrow=none;html=1;rounded=0;fillColor=#f5f5f5;strokeColor=#F9FFFA;entryX=0.088;entryY=0.028;entryDx=0;entryDy=0;entryPerimeter=0;" edge="1" parent="1">
          <mxGeometry width="50" height="50" relative="1" as="geometry">
            <mxPoint x="541" y="658" as="sourcePoint" />
            <mxPoint x="541" y="690" as="targetPoint" />
          </mxGeometry>
        </mxCell>
        <mxCell id="WgHRVZOSeJbv_-gWAW0D-183" value="" style="ellipse;whiteSpace=wrap;html=1;aspect=fixed;" vertex="1" parent="1">
          <mxGeometry x="530" y="638" width="20" height="20" as="geometry" />
        </mxCell>
        <mxCell id="WgHRVZOSeJbv_-gWAW0D-184" value="id" style="text;html=1;align=center;verticalAlign=middle;whiteSpace=wrap;rounded=0;fillColor=#f5f5f5;fontColor=#333333;strokeColor=#666666;" vertex="1" parent="1">
          <mxGeometry x="525" y="608" width="30" height="20" as="geometry" />
        </mxCell>
        <mxCell id="WgHRVZOSeJbv_-gWAW0D-185" value="" style="endArrow=none;html=1;rounded=0;fillColor=#f5f5f5;strokeColor=#F9FFFA;entryX=0.088;entryY=0.028;entryDx=0;entryDy=0;entryPerimeter=0;" edge="1" parent="1">
          <mxGeometry width="50" height="50" relative="1" as="geometry">
            <mxPoint x="555" y="748.5" as="sourcePoint" />
            <mxPoint x="555" y="780.5" as="targetPoint" />
          </mxGeometry>
        </mxCell>
        <mxCell id="WgHRVZOSeJbv_-gWAW0D-186" value="" style="ellipse;whiteSpace=wrap;html=1;aspect=fixed;" vertex="1" parent="1">
          <mxGeometry x="545" y="775.5" width="20" height="20" as="geometry" />
        </mxCell>
        <mxCell id="WgHRVZOSeJbv_-gWAW0D-187" value="data_prenotazione" style="text;html=1;align=center;verticalAlign=middle;whiteSpace=wrap;rounded=0;fillColor=#f5f5f5;fontColor=#333333;strokeColor=#666666;" vertex="1" parent="1">
          <mxGeometry x="525" y="798.5" width="115" height="21.5" as="geometry" />
        </mxCell>
      </root>
    </mxGraphModel>
  </diagram>
</mxfile>
